<?xml version="1.0" standalone="no"?><!DOCTYPE svg PUBLIC "-//W3C//DTD SVG 1.1//EN" "http://www.w3.org/Graphics/SVG/1.1/DTD/svg11.dtd"><svg t="1770707198401" class="icon" viewBox="0 0 1024 1024" version="1.1" xmlns="http://www.w3.org/2000/svg" p-id="21603" xmlns:xlink="http://www.w3.org/1999/xlink" width="16" height="16"><path d="M945.923754 243.237537L529.517107 5.004888q-8.00782-5.004888-17.016618-5.004888t-17.016618 5.004888L78.076246 244.238514q-8.00782 4.00391-12.512219 12.01173T61.059629 273.266862v477.466276q0 9.008798 4.504398 17.016618T78.076246 780.762463l417.407625 238.232649q8.00782 5.004888 17.016618 5.004888t17.016618-5.004888l416.406647-238.232649q8.00782-5.004888 12.512219-13.012707t4.504398-17.016618V273.266862q0-9.008798-4.504398-17.016618T945.923754 243.237537z m-51.049854 488.477028L512.500489 950.928641 129.1261 731.714565V292.285435L512.500489 73.071359l382.373411 219.214076zM227.221896 361.352884q-7.006843 12.01173-3.503421 25.524926T239.233627 407.397849l238.232649 136.132943v270.263929q0 14.013685 10.009775 24.023461t24.02346 10.009775q14.013685 0 24.523949-10.009775t10.510264-24.023461V544.531769l238.232649-137.13392q12.01173-7.006843 16.015641-20.520039t-3.002933-26.025415q-7.006843-12.512219-21.020528-16.01564t-26.025415 3.503421L512.500489 484.473118 274.26784 348.340176q-13.012708-7.006843-26.525905-3.503421T227.221896 361.352884z" p-id="21604" fill="#d81e06"></path></svg>