<?xml version="1.0" standalone="no"?><!DOCTYPE svg PUBLIC "-//W3C//DTD SVG 1.1//EN" "http://www.w3.org/Graphics/SVG/1.1/DTD/svg11.dtd"><svg t="1770367383151" class="icon" viewBox="0 0 1024 1024" version="1.1" xmlns="http://www.w3.org/2000/svg" p-id="12584" xmlns:xlink="http://www.w3.org/1999/xlink" width="16" height="16"><path d="M926.6 336.8c-22.7-53.6-55.1-101.7-96.4-143-41.3-41.3-89.4-73.8-143-96.4C631.7 73.9 572.7 62 512 62c-60.7 0-119.7 11.9-175.2 35.4-53.6 22.7-101.7 55.1-143 96.4-41.3 41.3-73.8 89.4-96.4 143C73.9 392.3 62 451.3 62 512c0 60.7 11.9 119.7 35.4 175.2 22.7 53.6 55.1 101.7 96.4 143 41.3 41.3 89.4 73.8 143 96.4C392.3 950.1 451.3 962 512 962c60.7 0 119.7-11.9 175.2-35.4 53.6-22.7 101.7-55.1 143-96.4 41.3-41.3 73.8-89.4 96.4-143C950.1 631.7 962 572.7 962 512c0-60.7-11.9-119.7-35.4-175.2z m-685.7-95.9C280.8 201 328 171 379.5 152c-2.9 3.1-5.8 6.3-8.7 9.5-33.9 38-61.4 82.1-81.7 130.9-33.7-3.6-62-7.5-83.6-10.9 10.9-14.2 22.7-27.8 35.4-40.6z m93.6 122.9c9.8 0.8 20 1.6 30.5 2.3 37.8 2.6 75.7 4.2 113.7 4.8v107.8H314.4c2.9-40.7 9.6-79.2 20.1-114.9zM167.8 343c21.1 3.7 55 9.1 99.4 14.2-10.3 38.2-16.9 78.8-19.6 121.5H130.1c4.1-47.7 16.9-93.6 37.7-135.7z m0.2 338.6c-20.9-42.3-33.8-88.4-37.9-136.2h116.6c2.1 40.8 10.1 81.5 24.1 121.7-46 5.1-81.1 10.6-102.8 14.5z m72.9 101.5c-12.6-12.6-24.3-26-35-40.2 23.5-3.6 54.7-7.9 92.3-11.8 19 37 43 73.3 71.7 108.1 11.9 14.4 24.3 28.3 37.2 41.7-62.1-17.6-119.2-50.9-166.2-97.8z m237.8 74.5c-17.7-16.5-38.1-37.5-58.4-62.2-18.8-23-35.3-46.6-49.4-70.5 35.9-2.4 71.8-3.9 107.7-4.5v137.2z m0-203.9c-37.9 0.6-75.9 2.2-113.7 4.8-8.8 0.6-17.3 1.2-25.6 1.9-14.9-38-23.6-76.6-25.9-115.1h165.2v108.4z m0-349.6c-35.9-0.6-71.9-2.1-107.7-4.5-3.9-0.3-7.8-0.5-11.6-0.8 15.8-33.2 35.6-63.5 59-90.3 21.1-24.2 42.4-42.2 60.3-55.1v150.7z m304.4-63.2c12.8 12.8 24.6 26.4 35.5 40.8-26 4-52.1 7.5-78.2 10.4-20.3-48.7-47.7-92.6-81.6-130.6-1.8-2.1-3.7-4.1-5.6-6.2 48 19.1 92.2 48 129.9 85.6z m-237.8-91.4c18.4 12.7 41 31.1 63.6 56.5 24.4 27.4 44.9 58.5 61.2 92.7-43.7 3.3-85.5 5-124.9 5.6V149.5z m0 221.4c18.3-0.3 36.6-0.7 54.7-1.4 31.7-1.2 63.3-3.2 94.9-5.9 10.6 35.8 17.3 74.3 20.2 115.1H545.3V370.9z m0 174.4h170.8c-2.3 38.5-11 77.1-26 115.2-30-2.5-60-4.3-90.1-5.5-18.2-0.7-36.5-1.2-54.7-1.4V545.3z m0 317.5V720.4c35.8 0.5 73.7 2 113.2 4.7-14 23.9-30.5 47.4-49.3 70.3-22.4 27.4-45 50.1-63.9 67.4z m237.8-79.7c-45 45-99.3 77.5-158.5 95.6 12.2-12.7 23.8-25.8 35-39.4 28.6-34.7 52.6-70.9 71.6-107.8 29.1 3.1 58.1 6.9 87 11.3-10.8 14.2-22.5 27.7-35.1 40.3zM856 681.4c-32.3-5.5-64.8-10.2-97.4-14 14-40.3 22.1-81.2 24.2-122.1h111c-4 47.8-16.9 93.8-37.8 136.1z m-74-202.7c-2.7-42.8-9.3-83.6-19.7-121.9 31.4-3.8 62.8-8.3 94-13.6 20.7 42.1 33.5 88 37.6 135.6H782z" p-id="12585" fill="#0e932e"></path></svg>